<?xml version="1.0" encoding="UTF-8" standalone="no"?>
<!-- sample rectangle -->

<svg
   fill="#2F27CE"
   class="logo"
   viewBox="0 0 300 300"
   version="1.1"
   id="svg11"
   sodipodi:docname="minimini-texture.svg"
   inkscape:version="1.3.2 (091e20e, 2023-11-25)"
   xmlns:inkscape="http://www.inkscape.org/namespaces/inkscape"
   xmlns:sodipodi="http://sodipodi.sourceforge.net/DTD/sodipodi-0.dtd"
   xmlns="http://www.w3.org/2000/svg"
   xmlns:svg="http://www.w3.org/2000/svg">
  <defs
     id="defs11" />
  <sodipodi:namedview
     id="namedview11"
     pagecolor="#ffffff"
     bordercolor="#000000"
     borderopacity="0.25"
     inkscape:showpageshadow="2"
     inkscape:pageopacity="0.0"
     inkscape:pagecheckerboard="0"
     inkscape:deskcolor="#d1d1d1"
     inkscape:zoom="0.78666667"
     inkscape:cx="149.36441"
     inkscape:cy="150"
     inkscape:window-width="1280"
     inkscape:window-height="1387"
     inkscape:window-x="2720"
     inkscape:window-y="25"
     inkscape:window-maximized="0"
     inkscape:current-layer="svg11" />
  <rect
     x="137.5"
     y="91.944"
     width="25"
     height="52.539398"
     id="rect1"
     style="fill:#fbfbfe;fill-opacity:1" />
  <rect
     x="275"
     y="91.944"
     width="25"
     height="52.539398"
     id="rect2"
     style="fill:#fbfbfe;fill-opacity:1" />
  <path
     d="m 175,91.944 h 87.5 v 52.539 h -25 V 115.587 H 200 v 28.896 h -25 z"
     id="path2"
     style="fill:#fbfbfe;fill-opacity:1" />
  <rect
     x="-162.5"
     y="-52.539402"
     width="25"
     height="52.539398"
     transform="scale(-1)"
     id="rect3"
     style="fill:#fbfbfe;fill-opacity:1" />
  <rect
     x="-162.5"
     y="-78.809097"
     width="25"
     height="13.1349"
     transform="scale(-1)"
     id="rect4"
     style="fill:#fbfbfe;fill-opacity:1" />
  <path
     d="M 0,78.8091 1.90735e-6,144.483 H 25 V 91.944 h 25 v 39.405 H 75 V 91.944 h 25 v 52.539 h 25 V 65.6743 H 1.90735e-6 25 Z"
     id="path4"
     style="fill:#fbfbfe;fill-opacity:1" />
  <rect
     x="-25"
     y="-52.539402"
     width="25"
     height="52.539398"
     transform="scale(-1)"
     id="rect5"
     style="fill:#fbfbfe;fill-opacity:1" />
  <path
     d="M 125,52.5394 H 37.5 V 1.2e-5 l 25,3e-6 V 28.8967 H 100 V 1.8e-5 l 25,3e-6 z"
     id="path5"
     style="fill:#fbfbfe;fill-opacity:1" />
  <path
     d="M 275,78.8092 300,65.6743 V 7.3e-5 L 275,7e-5 V 52.5395 H 250 V 13.1349 H 225 V 52.5395 H 200 V 6.3e-5 l -25,-2e-6 V 78.8092 Z"
     id="path6"
     style="fill:#fbfbfe;fill-opacity:1" />
  <rect
     x="137.5"
     y="247.461"
     width="25"
     height="52.539398"
     id="rect6"
     style="fill:#fbfbfe;fill-opacity:1" />
  <rect
     x="275"
     y="247.461"
     width="25"
     height="52.539398"
     id="rect7"
     style="fill:#fbfbfe;fill-opacity:1" />
  <path
     d="m 175,247.461 h 87.5 V 300 h -25 V 271.103 H 200 V 300 h -25 z"
     id="path7"
     style="fill:#fbfbfe;fill-opacity:1" />
  <rect
     x="-162.5"
     y="-208.056"
     width="25"
     height="52.539398"
     transform="scale(-1)"
     id="rect8"
     style="fill:#fbfbfe;fill-opacity:1" />
  <rect
     x="-162.5"
     y="-234.32599"
     width="25"
     height="13.1349"
     transform="scale(-1)"
     id="rect9"
     style="fill:#fbfbfe;fill-opacity:1" />
  <path
     d="M 0,234.326 1.90735e-6,300 H 25 v -52.539 h 25 v 39.404 h 25 v -39.404 h 25 V 300 h 25 V 221.191 H 1.90735e-6 25 Z"
     id="path9"
     style="fill:#fbfbfe;fill-opacity:1" />
  <rect
     x="-25"
     y="-208.056"
     width="25"
     height="52.539398"
     transform="scale(-1)"
     id="rect10"
     style="fill:#fbfbfe;fill-opacity:1" />
  <path
     d="M 125,208.056 H 37.5 v -52.539 h 25 v 28.896 H 100 v -28.896 h 25 z"
     id="path10"
     style="fill:#fbfbfe;fill-opacity:1" />
  <path
     d="m 275,234.326 25,-13.135 v -65.674 h -25 v 52.539 h -25 v -39.404 h -25 v 39.404 h -25 v -52.539 h -25 v 78.809 z"
     id="path11"
     style="fill:#fbfbfe;fill-opacity:1" />
</svg>
