<!-- sample rectangle -->
<svg fill="#2F27CE"
            class="logo" 
            viewBox="0 0 300 300" 
            xmlns="http://www.w3.org/2000/svg">
            <rect x="137.5" y="91.944" width="25" height="52.5394"/>
            <rect x="275" y="91.944" width="25" height="52.5394"/>
            <path d="M175 91.944H262.5V144.483H237.5V115.587H200V144.483H175V91.944Z"/>
            <rect x="162.5" y="52.5394" width="25" height="52.5394" transform="rotate(-180 162.5 52.5394)"/>
            <rect x="162.5" y="78.8091" width="25" height="13.1349" transform="rotate(-180 162.5 78.8091)"/>
            <path d="M0 78.8091L1.90735e-06 144.483H25V91.944H50V131.349H75V91.944H100V144.483H125V65.6743H1.90735e-06L25 65.6743L0 78.8091Z"/>
            <rect x="25" y="52.5394" width="25" height="52.5394" transform="rotate(-180 25 52.5394)"/>
            <path d="M125 52.5394L37.5 52.5394L37.5 1.2466e-05L62.5 1.47626e-05L62.5 28.8967L100 28.8967L100 1.82074e-05L125 2.0504e-05L125 52.5394Z"/>
            <path d="M275 78.8092L300 65.6743L300 7.2518e-05L275 7.02214e-05L275 52.5395H250L250 13.1349L225 13.1349V52.5395H200L200 6.33317e-05L175 6.10352e-05L175 78.8092L275 78.8092Z"/>
            <rect x="137.5" y="247.461" width="25" height="52.5394"/>
            <rect x="275" y="247.461" width="25" height="52.5394"/>
            <path d="M175 247.461H262.5V300H237.5V271.103H200V300H175V247.461Z"/>
            <rect x="162.5" y="208.056" width="25" height="52.5394" transform="rotate(-180 162.5 208.056)"/>
            <rect x="162.5" y="234.326" width="25" height="13.1349" transform="rotate(-180 162.5 234.326)"/>
            <path d="M0 234.326L1.90735e-06 300H25V247.461H50V286.865H75V247.461H100V300H125V221.191H1.90735e-06L25 221.191L0 234.326Z"/>
            <rect x="25" y="208.056" width="25" height="52.5394" transform="rotate(-180 25 208.056)"/>
            <path d="M125 208.056L37.5 208.056L37.5 155.517L62.5 155.517L62.5 184.413L100 184.413L100 155.517L125 155.517L125 208.056Z"/>
            <path d="M275 234.326L300 221.191L300 155.517L275 155.517L275 208.056H250L250 168.652L225 168.652V208.056H200L200 155.517L175 155.517L175 234.326L275 234.326Z"/>
        </svg>